<svg width="161" height="31" viewBox="0 0 161 31" fill="none" xmlns="http://www.w3.org/2000/svg">
<path fill-rule="evenodd" clip-rule="evenodd" d="M27.1245 0L31.2107 7.20986L27.048 14.4384H23.1669L27.1295 7.48554L27.3404 7.11568L23.2179 0H27.1245Z" fill="#780000"/>
<path d="M19.9532 30.2748L12.6979 16.5988L4.11037 0.34286H0L15.4255 30.2705L19.9532 30.2748Z" fill="#2B3437"/>
<path d="M28.9329 30.2748L21.6902 16.6157L13.0943 0.34286H8.97971L24.4052 30.2705L28.9329 30.2748Z" fill="#2B3437"/>
<mask id="mask0_431_725" style="mask-type:luminance" maskUnits="userSpaceOnUse" x="152" y="21" width="9" height="10">
<path d="M161 21.6577H152.569V30.0893H161V21.6577Z" fill="white"/>
</mask>
<g mask="url(#mask0_431_725)">
<path d="M158.901 29.5244C158.256 29.8996 157.548 30.0893 156.784 30.0893C156.021 30.0893 155.313 29.9038 154.668 29.5244C154.023 29.1491 153.509 28.639 153.134 27.9898C152.758 27.3448 152.569 26.6366 152.569 25.8735C152.569 24.7015 152.978 23.7066 153.8 22.8887C154.622 22.0709 155.617 21.6577 156.784 21.6577C157.952 21.6577 158.951 22.0667 159.769 22.8887C160.591 23.7066 161 24.7057 161 25.8735C161 26.6366 160.815 27.3448 160.435 27.9898C160.06 28.6348 159.55 29.1491 158.901 29.5244ZM154.495 28.209C155.119 28.8414 155.887 29.1576 156.793 29.1576C157.699 29.1576 158.462 28.8414 159.086 28.209C159.71 27.5767 160.022 26.801 160.022 25.8735C160.022 24.946 159.71 24.1746 159.086 23.5422C158.462 22.914 157.699 22.5979 156.793 22.5979C155.887 22.5979 155.123 22.914 154.495 23.5422C153.871 24.1703 153.555 24.946 153.555 25.8735C153.555 26.801 153.867 27.5767 154.495 28.209ZM157.737 28.1458L156.839 26.2698H156.173V28.1458H155.182V23.4199H156.881C158.121 23.4199 158.741 23.8794 158.741 24.8069C158.741 25.4857 158.445 25.9241 157.855 26.118L158.846 28.1416H157.737V28.1458ZM156.173 25.4308H156.793C157.13 25.4308 157.379 25.3845 157.539 25.2875C157.695 25.1948 157.775 25.043 157.775 24.8364C157.775 24.6299 157.695 24.4865 157.535 24.398C157.375 24.3095 157.118 24.2631 156.768 24.2631H156.177V25.4266L156.173 25.4308Z" fill="#2B3437"/>
</g>
<path d="M39.7124 30.1609C36.6939 30.1609 34.1813 29.1997 32.1789 27.2731C30.1764 25.3465 29.173 22.8845 29.173 19.8787C29.173 17.8888 29.6368 16.1014 30.5684 14.5205C31.4959 12.9395 32.7691 11.717 34.3837 10.8527C35.9983 9.98851 37.8027 9.5585 39.7925 9.5585C42.811 9.5585 45.3278 10.5155 47.3472 12.4252C49.3665 14.3392 50.3741 16.797 50.3741 19.8028C50.3741 22.8086 49.3539 25.3044 47.3176 27.2478C45.2814 29.1913 42.7478 30.1651 39.7124 30.1651V30.1609ZM39.7124 26.7588C41.5969 26.7588 43.1736 26.1054 44.4383 24.8027C45.703 23.5 46.3354 21.8348 46.3354 19.8197C46.3354 17.8045 45.7114 16.1941 44.4678 14.9167C43.2241 13.6394 41.6517 12.9986 39.7504 12.9986C37.8491 12.9986 36.2766 13.6394 35.0245 14.9252C33.7724 16.211 33.1443 17.8551 33.1443 19.8576C33.1443 21.8601 33.7724 23.4958 35.0245 24.8027C36.2766 26.1096 37.8406 26.7588 39.7124 26.7588Z" fill="#2B3437"/>
<path d="M86.1871 10.3722H90.5166L95.6978 25.7175L100.82 10.3722H104.833L109.934 25.7175L115.394 10.3722H119.428L111.874 30.1862H107.898L102.755 14.7987L97.5527 30.1862H93.5773L86.1828 10.3722H86.1871Z" fill="#2B3437"/>
<path d="M136.928 27.3532C135.899 28.2343 134.668 28.9257 133.231 29.419C131.793 29.9122 130.284 30.1609 128.703 30.1609C127.215 30.1609 125.819 29.9375 124.521 29.4864C123.223 29.0395 122.08 28.3945 121.098 27.5472C120.115 26.704 119.34 25.6332 118.775 24.3347C118.206 23.0363 117.923 21.5903 117.923 19.9925C117.923 16.8686 118.922 14.3476 120.921 12.4294C122.919 10.5113 125.419 9.55008 128.425 9.55008C131.431 9.55008 133.804 10.4902 135.625 12.3662C137.446 14.2464 138.353 16.6073 138.353 19.4571C138.353 20.1696 138.319 20.7092 138.252 21.0802H121.937C122.11 22.8592 122.822 24.2631 124.074 25.2917C125.326 26.3204 126.928 26.8347 128.88 26.8347C131.173 26.8347 133.243 26.1897 135.09 24.8954L136.928 27.349V27.3532ZM122.017 18.2135H134.415C134.297 16.6958 133.711 15.4311 132.666 14.4151C131.62 13.3991 130.208 12.8932 128.442 12.8932C126.675 12.8932 125.288 13.378 124.12 14.3476C122.953 15.3172 122.253 16.6073 122.013 18.2135H122.017Z" fill="#2B3437"/>
<path d="M80.5336 0.296482V12.577C79.7284 11.5736 78.6955 10.819 77.4392 10.3131C76.1787 9.80723 74.8465 9.55007 73.4342 9.55007C70.5211 9.55007 68.1308 10.5366 66.2674 12.5053C64.3999 14.4783 63.4682 16.9572 63.4682 19.9504C63.4682 21.9823 63.9235 23.7783 64.8341 25.3507C65.7447 26.919 66.942 28.1121 68.4343 28.9299C69.9225 29.7478 71.5667 30.1567 73.3584 30.1567C74.8339 30.1567 76.2209 29.87 77.5235 29.2967C78.7208 28.7697 79.7452 28.0109 80.601 27.0286L80.542 29.7604H84.5175V0.296482H80.542H80.5336ZM78.9105 24.7015C77.7512 26.059 76.1492 26.7377 74.1045 26.7377C72.1906 26.7377 70.6097 26.1264 69.3576 24.8997C68.1055 23.6729 67.4774 21.9992 67.4774 19.8745C67.4774 17.7497 68.0887 16.1224 69.307 14.8704C70.5254 13.6183 72.0978 12.9901 74.0244 12.9901C75.951 12.9901 77.5825 13.6267 78.8093 14.8999C80.0361 16.173 80.6474 17.8045 80.6474 19.7944C80.6474 21.7842 80.0656 23.3398 78.9063 24.6973L78.9105 24.7015Z" fill="#2B3437"/>
<path d="M61.6093 9.97586C60.2097 9.97586 59.0335 10.2583 58.0808 10.8148C57.2376 11.308 56.5083 12.0584 55.897 13.0618V10.3679H51.9426V30.182H55.897V21.1856C55.897 16.0971 57.7351 13.5508 61.4154 13.5508C62.2206 13.5508 63.0048 13.6689 63.7678 13.905L64.3622 10.3047C63.4643 10.0813 62.5495 9.96743 61.6136 9.96743L61.6093 9.97586Z" fill="#2B3437"/>
<path d="M143.96 0.296482H140.005V30.1567H143.96V0.296482Z" fill="#2B3437"/>
<path d="M150.284 0.296482H146.329V30.1567H150.284V0.296482Z" fill="#2B3437"/>
</svg>
