<svg width="20" height="20" viewBox="0 0 20 20" fill="none" xmlns="http://www.w3.org/2000/svg">
<g clip-path="url(#clip0_427_580)">
<path d="M19.3289 11.7375L17.5297 13.535V14.97C17.5297 16.3484 16.4081 17.47 15.0297 17.47H13.5956L11.7972 19.2675C11.3264 19.7392 10.6981 20 10.0297 20C9.36139 20 8.73389 19.74 8.26223 19.2675L6.46473 17.47H5.02973C3.65139 17.47 2.52973 16.3484 2.52973 14.97V13.535L0.732226 11.7375C-0.242773 10.7634 -0.242773 9.17669 0.732226 8.20169L2.52973 6.40419V4.97003C2.52973 3.59169 3.65139 2.47003 5.02973 2.47003H6.46473L8.26223 0.671695C9.20723 -0.274139 10.8547 -0.271639 11.7981 0.671695L13.5956 2.46919H15.0297C15.4906 2.46919 15.8631 2.84253 15.8631 3.30253C15.8631 3.76253 15.4906 4.13586 15.0297 4.13586H13.2506C13.0289 4.13586 12.8172 4.04836 12.6614 3.89169L10.6189 1.84919C10.3047 1.53586 9.75723 1.53419 9.44056 1.84919L7.39889 3.89169C7.24223 4.04836 7.03139 4.13586 6.80973 4.13586H5.02973C4.56973 4.13586 4.19639 4.51003 4.19639 4.96919V6.74836C4.19639 6.96919 4.10889 7.18169 3.95223 7.33753L1.91056 9.37919C1.58556 9.7042 1.58556 10.2325 1.91056 10.5584L3.95223 12.6C4.10889 12.7567 4.19639 12.9675 4.19639 13.1892V14.9692C4.19639 15.4292 4.56973 15.8025 5.02973 15.8025H6.80973C7.03139 15.8025 7.24306 15.89 7.39889 16.0467L9.44056 18.0884C9.75639 18.4034 10.3047 18.4034 10.6181 18.0884L12.6614 16.0467C12.8181 15.89 13.0289 15.8025 13.2506 15.8025H15.0297C15.4897 15.8025 15.8631 15.4292 15.8631 14.9692V13.1892C15.8631 12.9675 15.9506 12.7559 16.1072 12.6L18.1497 10.5584C18.4747 10.2334 18.4747 9.7042 18.1497 9.37919C17.8247 9.05336 17.8247 8.52586 18.1497 8.20086C18.4756 7.87586 19.0031 7.87503 19.3289 8.20086C20.3022 9.17503 20.3022 10.7609 19.3289 11.7359V11.7375ZM8.93389 11.385L6.41889 8.89503C6.09056 8.57003 5.56473 8.57419 5.23973 8.90086C4.91556 9.22753 4.91889 9.75503 5.24556 10.0792L7.76139 12.57C8.27306 13.0767 8.94639 13.3309 9.61889 13.3309C10.2914 13.3309 10.9664 13.075 11.4789 12.5659L18.9206 5.17336C19.2472 4.8492 19.2489 4.32169 18.9239 3.99503C18.5989 3.66836 18.0722 3.66586 17.7456 3.99086L10.3039 11.3842C9.92639 11.76 9.31223 11.76 8.93389 11.385Z" fill="#017921"/>
</g>
<defs>
<clipPath id="clip0_427_580">
<rect width="20" height="20" fill="white"/>
</clipPath>
</defs>
</svg>
