<svg width="20" height="20" viewBox="0 0 20 20" fill="none" xmlns="http://www.w3.org/2000/svg">
<g clip-path="url(#clip0_427_576)">
<path d="M18.5349 4.39333L15.6057 1.46417C14.6615 0.52 13.4057 0 12.0707 0H7.92819C6.59319 0 5.33736 0.52 4.39236 1.46417L1.46319 4.39333C0.519024 5.33833 -0.000976562 6.59417 -0.000976562 7.92917V12.0717C-0.000976562 13.4067 0.519024 14.6625 1.46319 15.6075L4.39236 18.5367C5.33736 19.4808 6.59319 20.0008 7.92819 20.0008H12.0707C13.4065 20.0008 14.6615 19.4808 15.6057 18.5367L18.5349 15.6083C19.4799 14.6642 19.9999 13.4083 19.9999 12.0725V7.93C19.9999 6.59417 19.4799 5.3375 18.5349 4.39333ZM18.3332 12.0708C18.3332 12.9617 17.9865 13.7983 17.3565 14.4283L14.4274 17.3575C13.7974 17.9867 12.9607 18.3333 12.0707 18.3333H7.92819C7.03819 18.3333 6.20069 17.9867 5.57069 17.3575L2.64236 14.4283C2.01236 13.7983 1.66569 12.9617 1.66569 12.0708V7.92833C1.66569 7.03833 2.01236 6.20083 2.64152 5.57083L5.57069 2.6425C6.20069 2.0125 7.03736 1.66583 7.92819 1.66583H12.0707C12.9607 1.66583 13.7974 2.0125 14.4274 2.64167L17.3565 5.57083C17.9865 6.2 18.3332 7.03667 18.3332 7.9275V12.0708ZM13.699 7.47833L11.1632 10.0142L13.699 12.55C14.0249 12.8758 14.0249 13.4025 13.699 13.7283C13.5365 13.8908 13.3232 13.9725 13.1099 13.9725C12.8965 13.9725 12.6832 13.8908 12.5207 13.7283L9.98486 11.1925L7.44902 13.7283C7.28652 13.8908 7.07319 13.9725 6.85986 13.9725C6.64652 13.9725 6.43319 13.8908 6.27069 13.7283C5.94486 13.4025 5.94486 12.8758 6.27069 12.55L8.80652 10.0142L6.27069 7.47833C5.94486 7.1525 5.94486 6.62583 6.27069 6.3C6.59652 5.97417 7.12319 5.97417 7.44902 6.3L9.98486 8.83583L12.5207 6.3C12.8465 5.97417 13.3732 5.97417 13.699 6.3C14.0249 6.62583 14.0249 7.1525 13.699 7.47833Z" fill="#780000"/>
</g>
<defs>
<clipPath id="clip0_427_576">
<rect width="20" height="20" fill="white"/>
</clipPath>
</defs>
</svg>
