<svg width="20" height="20" viewBox="0 0 24 24" fill="none" xmlns="http://www.w3.org/2000/svg">
<path d="M22 4.01C21 4.5 20.02 4.69 19 5C17.879 3.735 16.217 3.665 14.62 4.263C13.023 4.861 11.977 6.323 12 8.01V9.01C8.755 9.083 5.865 7.605 4 5.01C4 5.01 -0.182 12.94 8 17.01C5.942 18.397 3.886 19.338 2 19.01C5.059 20.723 8.29 21.272 11.1 20.509C14.302 19.637 16.948 17.312 18.279 13.843C18.6542 12.8311 18.8401 11.758 18.828 10.678C18.828 10.414 21.265 5.953 22 4.01Z" stroke="white" stroke-width="1.5" stroke-linecap="round" stroke-linejoin="round"/>
</svg>
