<svg width="20" height="20" viewBox="0 0 24 24" fill="none" xmlns="http://www.w3.org/2000/svg">
  <path d="M22 8.98C22 8.98 21.8 7.15 21.2 6.47C20.5 5.7 19.7 5.7 19.3 5.65C16.2 5.4 12 5.4 12 5.4C12 5.4 7.8 5.4 4.7 5.65C4.3 5.7 3.5 5.7 2.8 6.47C2.2 7.15 2 8.98 2 8.98C2 8.98 2 10.98 2 13V15C2 17.02 2.2 18.85 2.8 19.53C3.5 20.3 4.3 20.3 4.7 20.35C7.8 20.6 12 20.6 12 20.6C12 20.6 16.2 20.6 19.3 20.35C19.7 20.3 20.5 20.3 21.2 19.53C21.8 18.85 22 17.02 22 17.02C22 17.02 22 15.02 22 13V8.98Z" stroke="#780000" stroke-width="1.5" stroke-linecap="round" stroke-linejoin="round"/>
  <path d="M10 15V9L16 12L10 15Z" stroke="#780000" stroke-width="1.5" stroke-linecap="round" stroke-linejoin="round"/>
</svg>
